<svg id="Layer_1" data-name="Layer 1" xmlns="http://www.w3.org/2000/svg" width="750" height="277.06" viewBox="0 0 750 277.06"><defs><style>.cls-1{fill:#4cb2e1;}</style></defs><title>wolt_logo</title><path class="cls-1" d="M281.62,236.47H261.37c-7.59,0-10.12,7.59-9.28,15.18,7.59,100.4-14.34,217.67-39.65,217.67S188,414.48,188,365.55V281.18c0-9.28,0-11-10.12-11.81a96.9,96.9,0,0,0-27,0c-7.59,0-9.28,8.44-17.72,27C93.48,390.86,54.67,465.1,54.67,465.1a606.7,606.7,0,0,1,16.88-194c0-7.59,0-11.81-8.44-11.81A84.4,84.4,0,0,0,26,265.15,28.66,28.66,0,0,0,13.34,285.4a542.39,542.39,0,0,0-7.6,198.26c0,12.65,5.91,16,11,19.4a132.11,132.11,0,0,0,38,5.91,27.86,27.86,0,0,0,27.85-16A1114,1114,0,0,0,138.2,381.58c0,71.71,12.65,127.39,63.27,127.39C268.12,509,312,340.24,312,263.47c0-21.1-11-24.47-30.37-24.47" transform="translate(0 -236.47)"/><path class="cls-1" d="M382,478.6c-14.34,0-24.46-12.66-24.46-38,0-48.09,16.87-99.55,48.09-99.55h9.28c0,27.84,0,45.56,14.34,54.84-6.75,42.18-25.31,77.62-46.4,77.62M727.07,355.42c11.81,0,20.25,0,22.78-15.18a10.12,10.12,0,0,0-8.24-11.71,10,10,0,0,0-2.73-.1H690s5.9-28.69,8.44-39.66a11,11,0,0,0-9.28-17.71,116.74,116.74,0,0,0-29.53,0,9.28,9.28,0,0,0-10.13,7.59c0,11.81-5.9,26.15-8.43,44.71H614.86c-5.9,0-8.43,0-10.12,8.44s0,11.81,0,19.41,5.91,7.59,11.81,7.59H636.8c0,10.12-6.75,38.81-8.44,55.68-11,36.28-33.74,63.27-53.15,63.27s-19.4-6.74-19.4-27.84A421.54,421.54,0,0,1,572.68,345.3a278.48,278.48,0,0,0,22.78-84.37,13.49,13.49,0,0,0-10.13-15.18,84.35,84.35,0,0,0-36.27,0,17.71,17.71,0,0,0-11,16c-5.06,21.93-12.66,60.74-17.72,95.33a74.23,74.23,0,0,1-41.34,27,60.69,60.69,0,0,0-65.8-65A112.21,112.21,0,0,0,306.74,436.79c.05,1,.11,2,.19,3a64.11,64.11,0,0,0,70,73.4c49.78,0,84.37-33.75,99.55-97a84.37,84.37,0,0,0,36.28-19.41,444.35,444.35,0,0,0-7.59,62.43c0,34.59,15.18,54,50.62,54a84.35,84.35,0,0,0,70-44.72,44.7,44.7,0,0,0,44.43,45,43.59,43.59,0,0,0,5.35-.28,84.38,84.38,0,0,0,66.65-44.72c4.21-5.9,6.75-11,4.21-13.49s-14.34-8.44-17.71,0c-11,20.24-23.62,28.68-37.12,28.68s-18.56-5.91-18.56-24.47a805.65,805.65,0,0,1,11.81-103.77h42.18" transform="translate(0 -236.47)"/></svg>